<?xml version="1.0" encoding="utf-8"?>
<!-- Generator: Adobe Illustrator 21.1.0, SVG Export Plug-In . SVG Version: 6.00 Build 0)  -->
<svg version="1.1" id="Layer_1" xmlns="http://www.w3.org/2000/svg" xmlns:xlink="http://www.w3.org/1999/xlink" x="0px" y="0px"
	 viewBox="0 0 102 23.8" style="enable-background:new 0 0 102 23.8;" xml:space="preserve">
<style type="text/css">
	.st0{fill:#FFFFFF;}
	.st1{fill:#FFD13F;}
	.st2{fill:#CF0A2C;}
	.st3{fill:#683817;}
</style>
<path class="st0" d="M15.3,12.3c0,3.3-3.9,7.4-6.9,9.3c-2.9-1.9-6.9-6-6.9-9.3V2.2h13.8C15.3,2.2,15.3,12.3,15.3,12.3z M1.1,1.8
	v10.5c0,3.6,4.2,7.9,7.3,9.9c3.1-2,7.3-6.2,7.3-9.9V1.8H1.1"/>
<path class="st0" d="M4,12.3H3.6v4.4C3.7,16.9,3.9,17,4,17.2V12.3z"/>
<path class="st0" d="M10.4,18.2H12c0.2-0.2,0.3-0.3,0.4-0.5C11.7,17.6,11,17.8,10.4,18.2"/>
<path class="st0" d="M13.2,12.3h-0.4v5c0.1-0.2,0.3-0.3,0.4-0.5V12.3z"/>
<path class="st0" d="M6.5,18.2c-0.6-0.3-1.3-0.6-2.1-0.5c0.1,0.2,0.3,0.3,0.4,0.5H6.5z"/>
<path class="st0" d="M6.6,14.2c0-0.3,0.2-1,0.9-1s0.9,0.5,0.9,0.5s0.3-0.5,0.9-0.5s0.9,0.7,0.9,1c0,1-1.8,2-1.8,2.3
	C8.4,16.2,6.6,15.1,6.6,14.2 M8.3,16.8h0.2V19c0.7-0.7,2.1-1.8,3.9-1.8v-5.7c-0.4,0-0.9-0.1-1.4-0.1c-1.6,0-2.3,0.6-2.3,0.6
	s-0.2,0.2-0.2,0.9H8.3c0-0.7-0.2-0.9-0.2-0.9s-0.7-0.6-2.3-0.6c-0.4,0-1,0-1.4,0.1v5.7c1.7,0,3.2,1.1,3.9,1.8V16.8"/>
<path class="st1" d="M14.8,10.8c0,0,0.3-0.4,0.3-0.8c0-0.6-0.7-1.5-1.7-1.5c-0.3,0-0.5,0.1-0.8,0.1l2.1-3.3l-3.4,2.2
	c0-0.4,0-0.9,0.3-1.2C11.9,6,12.5,6,12.5,6S12.2,5.7,12,5.4C11.5,5,10.4,4.9,9.7,5.7C9.5,5.9,9.4,6.1,9.3,6.3L8.4,2.5l-1,4.2
	c-0.3-0.3-0.6-0.6-0.6-1C6.8,5.4,7.2,5,7.2,5S6.9,4.7,6.5,4.8C5.9,4.8,5,5.5,5.1,6.6c0,0.2,0.1,0.5,0.2,0.7l-3-1.9L4.5,9
	C4,9,3.5,9.2,3.1,8.9C2.7,8.7,2.7,8.1,2.7,8.1S2.3,8.2,2,8.6C1.7,9,1.7,10.1,2.6,10.8C3,11,3.5,11.2,4,11.3v-0.1
	c0,0,0.7-0.1,1.3-0.1c0-0.1,0-0.1,0-0.2C4.6,11,3.6,11,3,10.6C2.3,9.9,2.4,9.2,2.4,9.2s0.1,0.2,0.3,0.3c0.8,0.6,1.7-0.2,2.4,0.4
	c0.2,0.1,0.3,0.3,0.4,0.4c0.1-0.2,0.1-0.3,0.2-0.5L3.9,7.2L6.4,9c0.1-0.1,0.3-0.2,0.4-0.3c-0.3-0.2-1.1-1.2-1.1-2
	c0-0.9,0.6-1.2,0.6-1.2S6.2,5.7,6.2,5.9C6.3,7,7.4,7,7.4,8c0,0.2,0,0.3,0,0.4c0.2-0.1,0.3-0.1,0.5-0.1L8.4,5l0.5,3.3
	c0.2,0,0.3,0.1,0.5,0.1c0-0.5,0.1-1.5,0.7-2.1c0.6-0.6,1.3-0.4,1.3-0.4s-0.3,0-0.4,0.2c-0.7,0.8,0,1.6-0.6,2.3
	c-0.1,0.1-0.2,0.2-0.3,0.3c0.1,0.1,0.3,0.2,0.4,0.3L13,7.2l-1.9,2.6c0.1,0.1,0.2,0.3,0.2,0.4c0.4-0.4,1-1,1.9-1s1.2,0.7,1.2,0.7
	S14.2,9.8,14,9.8c-1,0-1.3,1.1-2.2,1.1c-0.1,0-0.2,0-0.3,0c0,0.1,0,0.1,0,0.2c0.5,0,1,0.1,1.2,0.1c0.5-0.3,0.8-0.8,1.3-0.8
	C14.4,10.3,14.8,10.8,14.8,10.8"/>
<path class="st1" d="M12.8,12h0.7v4.3c0.9-1.3,1.5-2.7,1.5-3.9v-0.9h-2.2V12z"/>
<path class="st1" d="M1.8,12.3c0,1.3,0.6,2.6,1.5,3.9V12H4v-0.5H1.8V12.3z"/>
<path class="st1" d="M8.4,11.8c0,0,0.2-0.2,0.5-0.3c0.4-0.2,1-0.4,2-0.4c-0.1-1.2-1.2-2.2-2.5-2.2s-2.3,1-2.5,2.2
	c0.9,0,1.6,0.2,2,0.4C8.3,11.6,8.4,11.8,8.4,11.8"/>
<path class="st1" d="M8.4,19.7c0,0-0.5-0.7-1.4-1.3H5.1c1.1,1.2,2.3,2.2,3.3,2.8c1-0.7,2.2-1.7,3.3-2.8H9.8
	C9,19.1,8.4,19.7,8.4,19.7"/>
<path class="st2" d="M9.4,13.2c-0.7,0-0.9,0.5-0.9,0.5s-0.3-0.5-0.9-0.5c-0.7,0-0.9,0.7-0.9,1c0,1,1.8,2,1.8,2.3
	c0-0.3,1.8-1.3,1.8-2.3C10.3,13.9,10,13.2,9.4,13.2"/>
<path class="st3" d="M15.7,12.3c0,3.6-4.2,7.9-7.3,9.9c-3.1-2-7.3-6.2-7.3-9.9V1.8h14.6V12.3z M0.7,1.4v11c0,4.1,4.8,8.6,7.7,10.4
	c2.9-1.8,7.7-6.3,7.7-10.4v-11L0.7,1.4"/>
<path class="st3" d="M7,18.5c0.9,0.6,1.4,1.3,1.4,1.3s0.5-0.7,1.4-1.3h1.9c-1.1,1.2-2.3,2.2-3.3,2.8c-1-0.7-2.2-1.7-3.3-2.8H7z
	 M4.3,17.6c0.8,0,1.5,0.2,2.1,0.5H4.8C4.6,18,4.5,17.8,4.3,17.6 M3.6,12.3H4v5c-0.1-0.2-0.3-0.3-0.4-0.5V12.3 M3.3,16.3
	c-0.9-1.3-1.5-2.7-1.5-3.9v-0.9H4V12H3.3V16.3 M2,8.6c0.2-0.3,0.7-0.5,0.7-0.5s0,0.6,0.4,0.8C3.5,9.2,4,9,4.5,9L2.2,5.4l3,1.9
	c0-0.2-0.1-0.5-0.1-0.7C5,5.5,5.9,4.8,6.5,4.8C6.9,4.7,7.2,5,7.2,5S6.8,5.4,6.8,5.8s0.3,0.7,0.6,1l1-4.2l0.9,3.8
	C9.4,6.2,9.6,6,9.7,5.8C10.4,4.9,11.5,5,12,5.4c0.3,0.3,0.4,0.7,0.4,0.7s-0.6,0-0.9,0.3c-0.3,0.3-0.2,0.7-0.3,1.2l3.4-2.2l-2.1,3.3
	c0.3-0.1,0.5-0.1,0.8-0.1c1,0,1.7,0.9,1.7,1.5c0,0.4-0.3,0.8-0.3,0.8s-0.4-0.5-0.8-0.5c-0.5,0-0.8,0.5-1.3,0.8
	c-0.2,0-0.7-0.1-1.2-0.1c0-0.1,0-0.1,0-0.2c0.1,0,0.2,0,0.3,0c1,0,1.2-1.1,2.2-1.1c0.2,0,0.4,0.1,0.4,0.1S14,9.2,13.1,9.2
	c-0.8,0-1.5,0.6-1.9,1c-0.1-0.1-0.1-0.3-0.2-0.4l1.9-2.6L10.4,9c-0.1-0.1-0.3-0.2-0.4-0.3c0.1-0.1,0.2-0.1,0.3-0.3
	c0.7-0.7,0-1.6,0.7-2.3c0.2-0.2,0.4-0.2,0.4-0.2s-0.7-0.2-1.3,0.4C9.5,6.9,9.4,7.9,9.4,8.4c-0.1,0-0.3-0.1-0.5-0.1L8.4,5L7.9,8.3
	c-0.2,0-0.4,0.1-0.5,0.1c0-0.1,0.1-0.3,0-0.4c0-1-1.1-1-1.2-2.1c0-0.2,0.1-0.4,0.1-0.4S5.7,5.8,5.7,6.7c0,0.8,0.9,1.8,1.1,2
	C6.6,8.8,6.5,8.9,6.4,9L3.9,7.2l1.9,2.6c-0.1,0.2-0.2,0.3-0.2,0.5C5.4,10.1,5.3,10,5.2,9.9c-0.8-0.6-1.6,0.2-2.4-0.4
	C2.6,9.4,2.4,9.2,2.4,9.2S2.3,9.9,3,10.5c0.6,0.4,1.6,0.4,2.3,0.3c0,0.1,0,0.1,0,0.2C4.6,11,4,11.1,4,11.1v0.1
	c-0.5-0.1-1-0.2-1.4-0.5C1.7,10.1,1.7,9,2,8.6 M15,12.3c0,1.3-0.6,2.6-1.5,3.9V12h-0.7v-0.5H15V12.3 M13.2,16.7
	c-0.1,0.2-0.3,0.3-0.4,0.5v-5h0.4V16.7 M5.9,11C6,9.8,7.1,8.8,8.4,8.8s2.3,1,2.5,2.2c-0.9,0-1.6,0.2-2,0.4c-0.3,0.2-0.5,0.3-0.5,0.3
	s-0.2-0.2-0.5-0.3C7.5,11.2,6.9,11,5.9,11 M8.3,16.8V19c-0.7-0.7-2.1-1.8-3.9-1.8v-5.7c0.4,0,0.9-0.1,1.4-0.1c1.6,0,2.3,0.6,2.3,0.6
	s0.2,0.2,0.2,0.9h0.3c0-0.7,0.2-0.9,0.2-0.9s0.7-0.6,2.3-0.6c0.4,0,1,0,1.4,0.1v5.7c-1.7,0-3.2,1.1-3.9,1.8v-2.2H8.3 M12,18.2h-1.7
	c0.6-0.3,1.3-0.6,2.1-0.5C12.3,17.8,12.2,18,12,18.2 M8.4,21.7c2.9-1.9,6.9-6,6.9-9.3V2.2H1.5v10.1C1.5,15.7,5.5,19.7,8.4,21.7"/>
<path class="st0" d="M24,17.7v0.2h0.3c0.1,0,0.2,0,0.2,0.1s0.1,0.2,0.1,0.4v1.9c0,1-0.6,1.2-1.2,1.2c-0.8,0-1.2-0.2-1.2-1.1v-2
	c0-0.2,0-0.4,0.1-0.4c0-0.1,0.1-0.1,0.2-0.1h0.3v-0.2c-0.3,0-0.6,0-0.8,0c-0.3,0-0.6,0-0.9,0v0.2h0.3c0.1,0,0.2,0,0.2,0.1
	s0.1,0.2,0.1,0.4v2.1c0,1.1,0.6,1.4,1.6,1.4c1.2,0,1.7-0.5,1.7-1.7v-1.7c0-0.2,0-0.4,0.1-0.4c0-0.1,0.1-0.1,0.2-0.1h0.3v-0.2
	c-0.3,0-0.5,0-0.7,0C24.5,17.8,24.2,17.7,24,17.7"/>
<path class="st0" d="M33.8,17.7v0.2h0.3c0.1,0,0.2,0,0.2,0.1s0.1,0.2,0.1,0.4v2.7l0,0l-2.8-3.4c-0.1,0-0.2,0-0.3,0
	c-0.2,0-0.4,0-0.7,0v0.2h0.3c0.1,0,0.2,0,0.2,0.1s0.1,0.2,0.1,0.4V21c0,0.2,0,0.4-0.1,0.4c0,0.1-0.1,0.1-0.2,0.1h-0.3v0.2
	c0.2,0,0.5,0,0.7,0s0.4,0,0.7,0v-0.2h-0.3c-0.1,0-0.2,0-0.2-0.1s-0.1-0.2-0.1-0.4v-2.7l0,0l2.7,3.4l0.5,0.1c0-0.1,0-0.1,0-0.2v-3.2
	c0-0.2,0-0.4,0.1-0.4c0-0.1,0.1-0.1,0.2-0.1h0.3v-0.2c-0.3,0-0.5,0-0.7,0C34.2,17.8,34,17.7,33.8,17.7"/>
<path class="st0" d="M40.3,17.7v0.2h0.3c0.1,0,0.2,0,0.2,0.1s0.1,0.2,0.1,0.4V21c0,0.2,0,0.4-0.1,0.4c0,0.1-0.1,0.1-0.2,0.1h-0.3
	v0.2c0.3,0,0.6,0,0.9,0c0.3,0,0.5,0,0.8,0v-0.2h-0.3c-0.1,0-0.2,0-0.2-0.1s-0.1-0.2-0.1-0.4v-2.6c0-0.2,0-0.4,0.1-0.4
	c0-0.1,0.1-0.1,0.2-0.1H42v-0.2c-0.3,0-0.6,0-0.8,0C40.9,17.8,40.6,17.8,40.3,17.7"/>
<path class="st0" d="M49.9,17.7v0.2h0.3c0.1,0,0.2,0,0.2,0.2c0,0.1,0,0.1-0.1,0.2l-1.1,2.8l-1.1-3c0,0,0,0,0-0.1s0.1-0.1,0.2-0.1
	h0.3v-0.2c-0.3,0-0.5,0-0.8,0s-0.5,0-0.8,0v0.2h0.2c0.1,0,0.2,0.1,0.3,0.2l1.1,2.7c0.1,0.3,0.2,0.6,0.3,1h0.3c0.1-0.4,0.2-0.7,0.4-1
	l1-2.5c0.1-0.3,0.2-0.4,0.3-0.4h0.2v-0.2c-0.2,0-0.4,0-0.6,0C50.3,17.8,50.1,17.7,49.9,17.7"/>
<path class="st0" d="M59.1,21.5c-0.1,0.1-0.7,0.1-1.2,0.1c-0.2,0-0.3,0-0.5,0V20c0.2,0,0.4,0,0.7,0c0.4,0,0.6,0,0.6,0.1v0.1v0.3H59
	c0-0.2,0-0.4,0-0.6s0-0.4,0-0.7h-0.2v0.3c0,0.1,0,0.1,0,0.2c-0.1,0-0.3,0.1-0.6,0.1s-0.5,0-0.7,0V18c0.2,0,0.3,0,0.5,0
	c0.4,0,0.8,0,1.1,0.1c0,0,0.1,0.1,0.1,0.2v0.4h0.2c0-0.3,0-0.6,0.1-0.9c-0.2,0-0.5,0-0.8,0s-0.9,0-1.4,0c-0.2,0-0.3,0-0.5,0
	s-0.3,0-0.5,0V18h0.3c0.1,0,0.2,0,0.2,0.1s0.1,0.2,0.1,0.4v2.6c0,0.2,0,0.4-0.1,0.4c0,0.1-0.1,0.1-0.2,0.1h-0.2v0.2
	c0.2,0,0.4,0,0.6,0c0.4,0,0.8,0,1.3,0h0.2c0.4,0,0.7,0,1,0c0-0.3,0-0.7,0.1-1h-0.2C59.3,21.2,59.2,21.4,59.1,21.5"/>
<path class="st0" d="M66.9,19.7c0.6-0.1,1.1-0.5,1.1-1.1c0-0.4-0.2-0.9-1.1-0.9h-0.1c-0.3,0-0.7,0-1,0s-0.7,0-1,0v0.2H65
	c0.1,0,0.2,0,0.2,0.1s0.1,0.2,0.1,0.4V21c0,0.2,0,0.4-0.1,0.4c0,0.1-0.1,0.1-0.2,0.1h-0.3v0.2c0.3,0,0.6,0,0.9,0s0.5,0,0.8,0v-0.2
	h-0.3c-0.1,0-0.2,0-0.2-0.1s-0.1-0.2-0.1-0.4v-3c0.2,0,0.3-0.1,0.6-0.1c0.5,0,0.9,0.2,0.9,0.8c0,0.4-0.3,0.7-0.8,0.8
	c-0.1,0-0.2,0-0.4,0c-0.1,0-0.1,0-0.2,0v0.1c0.1,0.1,0.2,0.2,0.3,0.4l1.1,1.4c0.1,0.1,0.2,0.2,0.2,0.3c0.1,0,0.3,0,0.4,0
	s0.3,0,0.4,0v-0.2c-0.1,0-0.3,0-0.4-0.2L66.9,19.7z"/>
<path class="st0" d="M75.1,19.5c-0.7-0.1-1-0.3-1-0.7c0-0.6,0.5-0.9,0.9-0.9c0.2,0,0.5,0,0.6,0.1c0.2,0.1,0.2,0.2,0.3,0.3v0.3h0.2
	c0-0.3,0-0.5,0.1-0.8c-0.2-0.1-0.6-0.2-1.1-0.2c-0.7,0-1.5,0.4-1.5,1.3c0,0.6,0.4,0.9,1.3,1c0.6,0.1,1,0.2,1,0.8
	c0,0.6-0.5,0.9-1,0.9s-0.9-0.2-1-0.5v-0.4h-0.2V21c0,0.2,0,0.4,0,0.7c0.2,0.1,0.6,0.2,1,0.2c0.9,0,1.8-0.5,1.8-1.5
	C76.4,19.8,75.9,19.6,75.1,19.5"/>
<path class="st0" d="M81.6,17.7v0.2h0.3c0.1,0,0.2,0,0.2,0.1s0.1,0.2,0.1,0.4V21c0,0.2,0,0.4-0.1,0.4c0,0.1-0.1,0.1-0.2,0.1h-0.3
	v0.2c0.3,0,0.6,0,0.9,0s0.5,0,0.8,0v-0.2H83c-0.1,0-0.2,0-0.2-0.1s-0.1-0.2-0.1-0.4v-2.6c0-0.2,0-0.4,0.1-0.4c0-0.1,0.1-0.1,0.2-0.1
	h0.3v-0.2c-0.3,0-0.6,0-0.8,0C82.2,17.8,81.9,17.8,81.6,17.7"/>
<path class="st0" d="M90.5,17.8h-0.8c-0.4,0-0.8,0-1.3,0c0,0.3,0,0.6,0,0.9h0.2v-0.5c0-0.1,0.1-0.2,0.2-0.2h0.9c0,0.2,0,0.4,0,0.6
	v2.5c0,0.2,0,0.4-0.1,0.4c0,0.1-0.1,0.1-0.2,0.1h-0.3v0.2c0.3,0,0.6,0,0.9,0s0.5,0,0.8,0v-0.2h-0.3c-0.1,0-0.2,0-0.2-0.1
	s-0.1-0.2-0.1-0.4v-2.5c0-0.2,0-0.4,0-0.6h0.9c0.2,0,0.2,0.1,0.2,0.2v0.5h0.2c0-0.3,0-0.6,0-0.9c-0.2,0-0.4,0-0.6,0
	C91,17.8,90.8,17.8,90.5,17.8"/>
<path class="st0" d="M99.5,18.8l-0.6,1l-0.8-1.5c-0.1-0.1-0.2-0.3-0.3-0.4c-0.1-0.1-0.2-0.2-0.3-0.2l0,0l-0.7,0.1V18H97
	c0.1,0,0.4,0.2,0.7,0.8l0.7,1.3c0,0.1,0.1,0.1,0.1,0.2v0.8c0,0.2,0,0.4-0.1,0.4c0,0.1-0.1,0.1-0.2,0.1h-0.3v0.2c0.3,0,0.6,0,0.9,0
	s0.5,0,0.8,0v-0.2h-0.3c-0.1,0-0.2,0-0.2-0.1S99,21.3,99,21.1v-0.8c0-0.1,0-0.3,0.1-0.4c0.2-0.5,0.9-1.5,1.4-2.1v-0.1H100
	C100,18.1,99.8,18.5,99.5,18.8"/>
<path class="st0" d="M31.9,11.7h-0.6l-0.2,1c-0.1,0.4-0.2,1.1-0.4,1.3c-0.3,0.3-2.8,0.4-4.4,0.4c-0.5,0-1.1,0-1.7-0.2V3.8
	c0-0.8,0-1.3,0.2-1.5c0-0.2,0.3-0.3,0.7-0.3l1-0.1V1.4c-1,0-2,0.1-2.9,0.1c-1,0-1.9,0-3-0.1V2l1,0.1c0.5,0,0.7,0.1,0.8,0.3
	c0.1,0.2,0.2,0.7,0.2,1.5v9.5c0,0.5-0.2,1-0.5,1.2l-0.6,0.3v0.5c0.5,0,1-0.1,1.7-0.1c1.2,0,2.6,0,4.4,0.1h0.6c1.3,0,2.6,0,3.3-0.1
	C31.7,14.2,31.8,12.8,31.9,11.7"/>
<path class="st0" d="M42.4,14.1c-0.4,0.2-2.4,0.3-4,0.3c-0.5,0-1.1,0-1.7-0.2V8.7c0.6-0.1,1.4-0.1,2.3-0.1c1.2,0,1.9,0.1,2.1,0.2
	c0.1,0.1,0.1,0.2,0.2,0.5l0.1,1.2H42c0-0.7-0.1-1.5-0.1-2.2s0-1.5,0.1-2.3h-0.6l-0.1,1c0,0.3-0.1,0.4-0.2,0.5
	c-0.2,0.1-0.9,0.2-2.1,0.2c-1,0-1.7,0-2.3-0.1V2.4c0.6-0.1,1.1-0.2,1.7-0.2c1.3,0,2.9,0,3.9,0.4c0.2,0.1,0.2,0.3,0.2,0.5v1.3h0.7
	c0-1,0.1-2.2,0.3-3c-0.8,0-1.7-0.1-2.6-0.1c-1.1,0-3,0.1-4.7,0.1c-0.6,0-1.1,0-1.7,0c-0.6,0-1.1,0-1.7,0V2l1,0.1
	c0.5,0,0.7,0.1,0.8,0.3s0.2,0.7,0.2,1.5v9c0,0.8,0,1.3-0.2,1.5c-0.1,0.2-0.4,0.3-0.8,0.3l-0.7,0.1v0.6c0.7,0,1.4-0.1,2.1-0.1
	c1.2,0,2.8,0,4.4,0.1h0.6c1.3,0,2.6,0,3.3-0.1c0-1.1,0.1-2.3,0.3-3.3h-0.7C43,13.1,42.7,14,42.4,14.1"/>
<path class="st0" d="M55.2,1.4V2l1,0.1c0.5,0,0.7,0.1,0.8,0.3s0.2,0.7,0.2,1.5v3.6c-0.2,0-0.8,0-1.7,0h-4.7c-0.9,0-1.4,0-1.7,0V3.8
	c0-0.8,0-1.3,0.2-1.5S49.7,2,50.2,2l1-0.1V1.4c-1,0-2,0.1-2.9,0.1c-1,0-1.9,0-3-0.1V2l1,0.1c0.5,0,0.7,0.1,0.8,0.3s0.2,0.7,0.2,1.5
	v9c0,0.8,0,1.3-0.2,1.5c-0.1,0.2-0.4,0.3-0.8,0.3l-1,0.1v0.6c1,0,2-0.1,3-0.1c0.9,0,1.9,0,2.9,0.1v-0.6l-1-0.1
	c-0.5,0-0.7-0.1-0.8-0.3s-0.2-0.7-0.2-1.5V8.3c0.2,0,0.8,0,1.7,0h4.7c0.9,0,1.4,0,1.7,0v4.5c0,0.8,0,1.3-0.2,1.5
	c-0.1,0.2-0.4,0.3-0.8,0.3l-1,0.1v0.6c1,0,2-0.1,3-0.1c0.9,0,1.9,0,2.9,0.1v-0.6l-1-0.1c-0.5,0-0.7-0.1-0.8-0.3s-0.2-0.7-0.2-1.5v-9
	c0-0.8,0-1.3,0.2-1.5C59.3,2.1,59.6,2,60.1,2H61V1.4c-1,0-2,0.1-2.9,0.1C57.1,1.4,56.2,1.4,55.2,1.4"/>
<path class="st0" d="M62.8,1.4V2l1,0.1c0.5,0,0.7,0.1,0.8,0.3s0.2,0.7,0.2,1.5v9c0,0.8,0,1.3-0.2,1.5c-0.1,0.2-0.4,0.3-0.8,0.3
	l-1,0.1v0.6c1,0,2-0.1,3-0.1c0.9,0,1.9,0,2.9,0.1v-0.6l-1-0.1c-0.5,0-0.7-0.1-0.8-0.3c-0.1-0.2-0.2-0.7-0.2-1.5v-9
	c0-0.8,0-1.3,0.2-1.5c0-0.3,0.3-0.4,0.7-0.4l1-0.1V1.4c-1,0-2,0.1-2.9,0.1C64.7,1.4,63.8,1.4,62.8,1.4"/>
<path class="st0" d="M81.5,9.8c-0.8,0-1.6,0-2.4,0v0.6l1.7,0.1c0.5,0,0.7,0.2,0.7,0.7v2c0,0.5,0,0.6-0.1,0.8
	c-0.1,0.4-1.3,0.7-2.8,0.7c-4.1,0-6.4-2.9-6.4-6.8c0-3.6,2-6.1,5.8-6.1c1.3,0,2.2,0.1,2.8,0.4c0.9,0.3,1.7,0.7,1.7,1.6v1.1h0.6
	c0-1,0.2-2.1,0.4-3c-0.9-0.3-2.5-0.8-5-0.8C73.6,1,70,3.9,70,8.3c0,5,3.6,7.3,8,7.3c1.4,0,3.5-0.5,5.3-1v-3.4c0-0.6,0-0.7,0.2-0.7
	l0.6-0.2L84,9.8C83.2,9.8,82.3,9.8,81.5,9.8"/>
<path class="st0" d="M95.1,1.4V2l1,0.1c0.5,0,0.7,0.1,0.8,0.3c0.1,0.2,0.2,0.7,0.2,1.5v3.6c-0.2,0-0.8,0-1.7,0h-4.7
	c-0.9,0-1.4,0-1.7,0V3.8c0-0.8,0-1.3,0.2-1.5s0.5-0.3,1-0.3l1-0.1V1.4c-1,0-2,0.1-2.9,0.1c-1,0-1.9,0-3-0.1V2l1,0.1
	c0.5,0,0.7,0.1,0.8,0.3c0.1,0.2,0.2,0.7,0.2,1.5v9c0,0.8,0,1.3-0.2,1.5c-0.1,0.2-0.4,0.3-0.8,0.3l-1,0.1v0.6c1,0,2-0.1,3-0.1
	c0.9,0,1.9,0,2.9,0.1v-0.6l-1-0.1c-0.5,0-0.7-0.1-0.8-0.3c-0.1-0.2-0.2-0.7-0.2-1.5V8.3c0.2,0,0.8,0,1.7,0h4.7c0.9,0,1.4,0,1.7,0
	v4.5c0,0.8,0,1.3-0.2,1.5c-0.1,0.2-0.4,0.3-0.8,0.3l-1,0.1v0.6c1,0,2-0.1,3-0.1c0.9,0,1.9,0,2.9,0.1v-0.6l-1-0.1
	c-0.5,0-0.7-0.1-0.8-0.3c-0.1-0.2-0.2-0.7-0.2-1.5v-9c0-0.8,0-1.3,0.2-1.5C99.3,2.1,99.6,2,100,2l1-0.1V1.4c-1,0-2,0.1-2.9,0.1
	C97.1,1.4,96.2,1.4,95.1,1.4"/>
</svg>
